<svg width="10" height="10" viewBox="0 0 10 10" fill="none" xmlns="http://www.w3.org/2000/svg">
<rect width="10" height="10" fill="white"/>
<g id="Board">
<g id="Board_2" filter="url(#filter0_d_0_1)">
<g clip-path="url(#clip0_0_1)">
<rect x="-698" y="-395" width="880.001" height="568" rx="16" fill="#699BF7"/>
<g id="Instructions">
<path d="M-129.999 -395H170.001C176.628 -395 182.001 -389.628 182.001 -383V161C182.001 167.628 176.628 173 170.001 173H-129.999V-395Z" fill="white"/>
<path d="M-129.999 -395H170.001C176.628 -395 182.001 -389.628 182.001 -383V161C182.001 167.628 176.628 173 170.001 173H-129.999V-395Z" stroke="black" stroke-width="2"/>
<g id="Tip" filter="url(#filter1_d_0_1)">
<rect x="-129.999" y="-147" width="312" height="320" fill="white"/>
<rect x="-129.999" y="-147" width="312" height="320" stroke="black" stroke-width="2"/>
<g id="Rows">
<g id="Row">
<g id="Player Field">
<g id="Base" filter="url(#filter2_d_0_1)">
<rect x="-14.999" y="-14.9995" width="40" height="40" rx="8" fill="white"/>
<rect x="-14.999" y="-14.9995" width="40" height="40" rx="8" stroke="black" stroke-width="2"/>
</g>
<circle id="Dot" cx="5.00098" cy="5.00049" r="5" fill="black"/>
</g>
</g>
</g>
</g>
</g>
</g>
<rect x="-698" y="-395" width="880.001" height="568" rx="16" stroke="black" stroke-width="2"/>
</g>
</g>
<defs>
<filter id="filter0_d_0_1" x="-699" y="-396" width="884.001" height="572" filterUnits="userSpaceOnUse" color-interpolation-filters="sRGB">
<feFlood flood-opacity="0" result="BackgroundImageFix"/>
<feColorMatrix in="SourceAlpha" type="matrix" values="0 0 0 0 0 0 0 0 0 0 0 0 0 0 0 0 0 0 127 0" result="hardAlpha"/>
<feOffset dx="2" dy="2"/>
<feColorMatrix type="matrix" values="0 0 0 0 0 0 0 0 0 0 0 0 0 0 0 0 0 0 1 0"/>
<feBlend mode="normal" in2="BackgroundImageFix" result="effect1_dropShadow_0_1"/>
<feBlend mode="normal" in="SourceGraphic" in2="effect1_dropShadow_0_1" result="shape"/>
</filter>
<filter id="filter1_d_0_1" x="-130.999" y="-156" width="314" height="330" filterUnits="userSpaceOnUse" color-interpolation-filters="sRGB">
<feFlood flood-opacity="0" result="BackgroundImageFix"/>
<feColorMatrix in="SourceAlpha" type="matrix" values="0 0 0 0 0 0 0 0 0 0 0 0 0 0 0 0 0 0 127 0" result="hardAlpha"/>
<feOffset dy="-8"/>
<feColorMatrix type="matrix" values="0 0 0 0 0 0 0 0 0 0 0 0 0 0 0 0 0 0 0.08 0"/>
<feBlend mode="normal" in2="BackgroundImageFix" result="effect1_dropShadow_0_1"/>
<feBlend mode="normal" in="SourceGraphic" in2="effect1_dropShadow_0_1" result="shape"/>
</filter>
<filter id="filter2_d_0_1" x="-15.999" y="-15.9995" width="44" height="44" filterUnits="userSpaceOnUse" color-interpolation-filters="sRGB">
<feFlood flood-opacity="0" result="BackgroundImageFix"/>
<feColorMatrix in="SourceAlpha" type="matrix" values="0 0 0 0 0 0 0 0 0 0 0 0 0 0 0 0 0 0 127 0" result="hardAlpha"/>
<feOffset dx="2" dy="2"/>
<feColorMatrix type="matrix" values="0 0 0 0 0 0 0 0 0 0 0 0 0 0 0 0 0 0 1 0"/>
<feBlend mode="normal" in2="BackgroundImageFix" result="effect1_dropShadow_0_1"/>
<feBlend mode="normal" in="SourceGraphic" in2="effect1_dropShadow_0_1" result="shape"/>
</filter>
<clipPath id="clip0_0_1">
<rect x="-698" y="-395" width="880.001" height="568" rx="16" fill="white"/>
</clipPath>
</defs>
</svg>
