<?xml version="1.0" encoding="UTF-8"?>
<svg xmlns="http://www.w3.org/2000/svg" xmlns:xlink="http://www.w3.org/1999/xlink" width="40px" height="40px" viewBox="0 0 40 40" version="1.1">
<g id="surface1">
<path style=" stroke:none;fill-rule:nonzero;fill:rgb(60%,25.882353%,35.686275%);fill-opacity:1;" d="M 35.765625 19.640625 C 35.765625 17.589844 34.105469 15.929688 32.054688 15.929688 C 31.921875 15.929688 31.792969 15.933594 31.664062 15.949219 L 36.765625 0.90625 L 15.089844 0.90625 L 20.183594 15.933594 C 20.109375 15.929688 20.035156 15.929688 19.957031 15.929688 C 17.90625 15.929688 16.246094 17.589844 16.246094 19.640625 C 16.246094 21.296875 17.332031 22.703125 18.832031 23.179688 C 18.039062 24.550781 17.042969 25.785156 15.910156 26.855469 C 14.371094 28.304688 12.613281 29.40625 10.707031 30.082031 C 8.441406 28.917969 7.371094 26.328125 8.335938 24.058594 C 8.445312 23.800781 8.554688 23.542969 8.664062 23.28125 C 10.304688 22.898438 11.527344 21.425781 11.527344 19.667969 C 11.527344 17.617188 9.867188 15.953125 7.816406 15.953125 C 5.765625 15.953125 4.101562 17.617188 4.101562 19.667969 C 4.101562 20.925781 4.730469 22.035156 5.683594 22.707031 C 4.765625 24.800781 3.414062 26.988281 2.996094 29.527344 C 2.488281 32.570312 2.992188 35.796875 5.625 37.621094 C 11.75 41.867188 18.402344 34.988281 25.414062 33.261719 C 27.953125 32.632812 30.746094 32.734375 32.984375 31.4375 C 34.664062 30.464844 35.773438 28.851562 36.085938 27.039062 C 36.398438 25.25 35.945312 23.464844 34.902344 22.019531 C 35.441406 21.375 35.765625 20.546875 35.765625 19.640625 "/>
<path style=" stroke:none;fill-rule:nonzero;fill:rgb(100%,100%,100%);fill-opacity:1;" d="M 35.195312 26.882812 C 34.921875 28.457031 33.949219 29.832031 32.527344 30.652344 C 31.203125 31.421875 29.617188 31.648438 27.9375 31.890625 C 27.035156 32.019531 26.105469 32.15625 25.195312 32.378906 C 22.792969 32.972656 20.460938 34.128906 18.210938 35.25 C 13.703125 37.488281 9.808594 39.421875 6.140625 36.875 C 3.453125 35.011719 3.574219 31.566406 3.890625 29.675781 C 4.179688 27.925781 4.964844 26.3125 5.722656 24.753906 C 5.855469 24.484375 5.984375 24.222656 6.109375 23.957031 C 6.484375 24.109375 6.882812 24.210938 7.300781 24.257812 C 6.527344 26.808594 7.742188 29.582031 10.292969 30.890625 L 10.640625 31.070312 L 11.011719 30.9375 C 13.027344 30.21875 14.886719 29.066406 16.53125 27.511719 C 17.597656 26.507812 18.515625 25.398438 19.265625 24.210938 C 19.492188 24.242188 19.722656 24.261719 19.957031 24.261719 C 22.296875 24.261719 24.238281 22.511719 24.535156 20.25 C 25.496094 20.214844 26.511719 20.214844 27.476562 20.25 C 27.773438 22.511719 29.714844 24.261719 32.054688 24.261719 C 33.03125 24.261719 33.941406 23.953125 34.6875 23.433594 C 35.207031 24.496094 35.402344 25.691406 35.195312 26.882812 Z M 7.816406 16.863281 C 9.363281 16.863281 10.621094 18.121094 10.621094 19.667969 C 10.621094 20.222656 10.460938 20.742188 10.179688 21.179688 C 9.710938 21.90625 8.921875 22.40625 8.007812 22.464844 C 7.945312 22.472656 7.882812 22.472656 7.816406 22.472656 C 7.472656 22.472656 7.140625 22.410156 6.835938 22.296875 C 6.21875 22.066406 5.703125 21.621094 5.378906 21.054688 C 5.144531 20.648438 5.011719 20.171875 5.011719 19.667969 C 5.011719 18.121094 6.269531 16.863281 7.816406 16.863281 Z M 17.152344 19.640625 C 17.152344 18.234375 18.191406 17.066406 19.542969 16.867188 C 19.675781 16.84375 19.816406 16.835938 19.957031 16.835938 C 20.859375 16.835938 21.660156 17.261719 22.171875 17.921875 C 22.300781 18.085938 22.410156 18.261719 22.5 18.453125 C 22.667969 18.816406 22.765625 19.21875 22.765625 19.640625 C 22.765625 19.867188 22.738281 20.082031 22.6875 20.292969 C 22.414062 21.4375 21.4375 22.3125 20.242188 22.433594 C 20.148438 22.441406 20.054688 22.449219 19.957031 22.449219 C 19.398438 22.449219 18.875 22.28125 18.4375 21.996094 C 17.664062 21.496094 17.152344 20.628906 17.152344 19.640625 Z M 28.863281 16.304688 C 28.261719 16.878906 27.816406 17.613281 27.59375 18.441406 C 26.554688 18.402344 25.453125 18.402344 24.417969 18.441406 C 24.179688 17.558594 23.6875 16.78125 23.027344 16.191406 L 25.929688 10.320312 Z M 16.355469 1.8125 L 35.5 1.8125 L 30.976562 15.148438 C 30.78125 15.195312 30.589844 15.253906 30.40625 15.328125 L 25.9375 6.214844 L 21.460938 15.273438 C 21.265625 15.207031 21.066406 15.152344 20.863281 15.109375 Z M 34.859375 19.640625 C 34.859375 19.921875 34.816406 20.195312 34.742188 20.449219 C 34.554688 21.0625 34.167969 21.582031 33.660156 21.941406 C 33.203125 22.257812 32.652344 22.449219 32.054688 22.449219 C 30.757812 22.449219 29.664062 21.5625 29.34375 20.367188 C 29.28125 20.136719 29.246094 19.894531 29.246094 19.640625 C 29.246094 19.257812 29.324219 18.890625 29.464844 18.558594 C 29.539062 18.386719 29.628906 18.222656 29.730469 18.070312 C 30.234375 17.328125 31.085938 16.835938 32.054688 16.835938 C 32.144531 16.835938 32.230469 16.839844 32.316406 16.847656 C 33.742188 16.980469 34.859375 18.183594 34.859375 19.640625 Z M 36.675781 19.640625 C 36.675781 17.386719 35.050781 15.503906 32.910156 15.101562 L 38.027344 0 L 13.824219 0 L 18.953125 15.132812 C 16.886719 15.59375 15.339844 17.4375 15.339844 19.640625 C 15.339844 21.296875 16.210938 22.746094 17.523438 23.5625 C 16.890625 24.503906 16.144531 25.386719 15.289062 26.195312 C 13.929688 27.476562 12.417969 28.445312 10.785156 29.085938 C 9.144531 28.054688 8.449219 26.109375 9.171875 24.414062 L 9.226562 24.28125 C 9.261719 24.195312 9.296875 24.113281 9.332031 24.03125 C 11.136719 23.402344 12.4375 21.683594 12.4375 19.667969 C 12.4375 17.121094 10.363281 15.046875 7.816406 15.046875 C 5.269531 15.046875 3.195312 17.121094 3.195312 19.667969 C 3.195312 20.953125 3.722656 22.117188 4.574219 22.957031 C 4.421875 23.285156 4.257812 23.621094 4.09375 23.960938 C 3.3125 25.558594 2.433594 27.371094 2.097656 29.378906 C 1.4375 33.371094 2.503906 36.566406 5.105469 38.367188 C 6.683594 39.460938 8.289062 39.890625 9.902344 39.890625 C 12.9375 39.890625 16.011719 38.367188 19.015625 36.871094 C 21.183594 35.796875 23.417969 34.6875 25.628906 34.140625 C 26.453125 33.9375 27.300781 33.816406 28.195312 33.6875 C 29.972656 33.429688 31.808594 33.164062 33.4375 32.222656 C 35.324219 31.128906 36.617188 29.296875 36.980469 27.195312 C 37.292969 25.386719 36.917969 23.578125 35.996094 22.046875 C 36.425781 21.34375 36.675781 20.519531 36.675781 19.640625 Z M 36.675781 19.640625 "/>
</g>
</svg>
